<svg width="24" height="24" viewBox="0 0 24 24" fill="none" xmlns="http://www.w3.org/2000/svg">
<g clip-path="url(#clip0_17148_4584)">
<path d="M19.8 19.2H4.20002C3.70502 19.2 3.28127 19.0238 2.92877 18.6713C2.57627 18.3188 2.40002 17.895 2.40002 17.4V13.8C2.89502 13.8 3.31877 13.6233 3.67127 13.2698C4.02377 12.9163 4.20002 12.4913 4.20002 11.9948C4.20002 11.4983 4.02377 11.0738 3.67127 10.7213C3.31877 10.3688 2.89502 10.1925 2.40002 10.1925V6.59255C2.40002 6.09755 2.57627 5.67505 2.92877 5.32505C3.28127 4.97505 3.70502 4.80005 4.20002 4.80005H19.8C20.295 4.80005 20.7188 4.9763 21.0713 5.3288C21.4238 5.6813 21.6 6.10505 21.6 6.60005V10.2C21.105 10.2 20.6813 10.3768 20.3288 10.7303C19.9763 11.0838 19.8 11.5088 19.8 12.0053C19.8 12.5018 19.9763 12.9263 20.3288 13.2788C20.6813 13.6313 21.105 13.8075 21.6 13.8075V17.4075C21.6 17.9025 21.4238 18.325 21.0713 18.675C20.7188 19.025 20.295 19.2 19.8 19.2ZM19.8 17.4V15.125C19.2667 14.8084 18.8334 14.375 18.5 13.825C18.1667 13.275 18 12.6667 18 12C18 11.3334 18.1667 10.725 18.5 10.175C18.8334 9.62505 19.2667 9.19172 19.8 8.87505V6.60005H4.20002V8.87505C4.73336 9.19172 5.16669 9.62505 5.50002 10.175C5.83336 10.725 6.00002 11.3334 6.00002 12C6.00002 12.6667 5.83336 13.275 5.50002 13.825C5.16669 14.375 4.73336 14.8084 4.20002 15.125V17.4H19.8Z" fill="#1F1F1F"/>
<path d="M11 15.8V12.8H8V11H11V8H12.8V11H15.8V12.8H12.8V15.8H11Z" fill="#1F1F1F"/>
</g>
<defs>
<clipPath id="clip0_17148_4584">
<rect width="24" height="24" rx="12" fill="white"/>
</clipPath>
</defs>
</svg>
