<svg width="20" height="20" viewBox="0 0 20 20" fill="none" xmlns="http://www.w3.org/2000/svg">
<path d="M13.1667 6.99996L5.75008 14.4166C5.5973 14.5694 5.40286 14.6458 5.16675 14.6458C4.93064 14.6458 4.73619 14.5694 4.58341 14.4166C4.43064 14.2638 4.35425 14.0694 4.35425 13.8333C4.35425 13.5972 4.43064 13.4027 4.58341 13.25L12.0001 5.83329H5.66675C5.43064 5.83329 5.23272 5.75343 5.073 5.59371C4.91328 5.43399 4.83341 5.23607 4.83341 4.99996C4.83341 4.76385 4.91328 4.56593 5.073 4.40621C5.23272 4.24649 5.43064 4.16663 5.66675 4.16663H14.0001C14.2362 4.16663 14.4341 4.24649 14.5938 4.40621C14.7536 4.56593 14.8334 4.76385 14.8334 4.99996V13.3333C14.8334 13.5694 14.7536 13.7673 14.5938 13.927C14.4341 14.0868 14.2362 14.1666 14.0001 14.1666C13.764 14.1666 13.5661 14.0868 13.4063 13.927C13.2466 13.7673 13.1667 13.5694 13.1667 13.3333V6.99996Z" fill="black" fill-opacity="0.12"/>
</svg>
