<svg width="20" height="20" viewBox="0 0 20 20" fill="none" xmlns="http://www.w3.org/2000/svg">
<path d="M6.83334 15.8333C6.59723 15.8333 6.39931 15.7535 6.23959 15.5937C6.07987 15.434 6.00001 15.2361 6.00001 15C6.00001 14.7639 6.07987 14.566 6.23959 14.4062C6.39931 14.2465 6.59723 14.1667 6.83334 14.1667H11.9167C12.7917 14.1667 13.5521 13.8889 14.1979 13.3333C14.8438 12.7778 15.1667 12.0833 15.1667 11.25C15.1667 10.4167 14.8438 9.72222 14.1979 9.16667C13.5521 8.61111 12.7917 8.33333 11.9167 8.33333H6.66667L8.25001 9.91667C8.40278 10.0694 8.47917 10.2639 8.47917 10.5C8.47917 10.7361 8.40278 10.9306 8.25001 11.0833C8.09723 11.2361 7.90278 11.3125 7.66667 11.3125C7.43056 11.3125 7.23612 11.2361 7.08334 11.0833L4.08334 8.08333C4.00001 8 3.94098 7.90972 3.90626 7.8125C3.87153 7.71528 3.85417 7.61111 3.85417 7.5C3.85417 7.38889 3.87153 7.28472 3.90626 7.1875C3.94098 7.09028 4.00001 7 4.08334 6.91667L7.08334 3.91667C7.23612 3.76389 7.43056 3.6875 7.66667 3.6875C7.90278 3.6875 8.09723 3.76389 8.25001 3.91667C8.40278 4.06944 8.47917 4.26389 8.47917 4.5C8.47917 4.73611 8.40278 4.93056 8.25001 5.08333L6.66667 6.66667H11.9167C13.2639 6.66667 14.4201 7.10417 15.3854 7.97917C16.3507 8.85417 16.8333 9.94444 16.8333 11.25C16.8333 12.5556 16.3507 13.6458 15.3854 14.5208C14.4201 15.3958 13.2639 15.8333 11.9167 15.8333H6.83334Z" fill="black" fill-opacity="0.12"/>
</svg>
