<svg width="20" height="20" viewBox="0 0 20 20" fill="none" xmlns="http://www.w3.org/2000/svg">
<path d="M9.74997 18.3334C9.29164 18.3334 8.49997 18.3334 8.0833 18.3334C8.0833 17.9167 8.0833 17.1251 8.0833 16.6667H11.4166C11.4166 17.1251 11.4166 17.9167 11.4166 18.3334C11 18.3334 10.2083 18.3334 9.74997 18.3334ZM6.41664 15.8334V14.1667H13.0833V15.8334H6.41664ZM6.62497 13.3334C5.66664 12.764 4.90622 12.0001 4.34372 11.0417C3.78122 10.0834 3.49997 9.04175 3.49997 7.91675C3.49997 6.18064 4.10761 4.70494 5.32289 3.48966C6.53816 2.27439 8.01386 1.66675 9.74997 1.66675C11.4861 1.66675 12.9618 2.27439 14.1771 3.48966C15.3923 4.70494 16 6.18064 16 7.91675C16 9.04175 15.7187 10.0834 15.1562 11.0417C14.5937 12.0001 13.8333 12.764 12.875 13.3334H6.62497ZM7.12497 11.6667H12.375C13 11.2223 13.4826 10.6737 13.8229 10.0209C14.1632 9.36814 14.3333 8.66675 14.3333 7.91675C14.3333 6.63897 13.8889 5.55564 13 4.66675C12.1111 3.77786 11.0277 3.33341 9.74997 3.33341C8.47219 3.33341 7.38886 3.77786 6.49997 4.66675C5.61108 5.55564 5.16664 6.63897 5.16664 7.91675C5.16664 8.66675 5.33677 9.36814 5.67705 10.0209C6.01733 10.6737 6.49997 11.2223 7.12497 11.6667Z" fill="black" fill-opacity="0.56"/>
</svg>
