<svg width="24" height="24" viewBox="0 0 24 24" fill="none" xmlns="http://www.w3.org/2000/svg">
<path d="M12 21.6C10.6833 21.6 9.44166 21.35 8.27499 20.85C7.10833 20.35 6.08749 19.6625 5.21249 18.7875C4.33749 17.9125 3.64999 16.8917 3.14999 15.725C2.64999 14.5584 2.39999 13.3167 2.39999 12C2.39999 10.6667 2.64999 9.42086 3.14999 8.26252C3.64999 7.10419 4.33749 6.08752 5.21249 5.21252C6.08749 4.33752 7.10833 3.65002 8.27499 3.15002C9.44166 2.65002 10.6833 2.40002 12 2.40002C13.05 2.40002 14.05 2.55836 15 2.87502C15.95 3.19169 16.825 3.64169 17.625 4.22502L16.325 5.52502C15.7083 5.09169 15.0333 4.76252 14.3 4.53752C13.5667 4.31252 12.8 4.20002 12 4.20002C9.83333 4.20002 7.99166 4.95836 6.47499 6.47502C4.95833 7.99169 4.19999 9.83336 4.19999 12C4.19999 14.1667 4.95833 16.0084 6.47499 17.525C7.99166 19.0417 9.83333 19.8 12 19.8C14.1667 19.8 16.0083 19.0417 17.525 17.525C19.0417 16.0084 19.8 14.1667 19.8 12C19.8 11.65 19.775 11.3042 19.725 10.9625C19.675 10.6209 19.6083 10.2834 19.525 9.95002L20.95 8.52502C21.1667 9.05836 21.3292 9.61669 21.4375 10.2C21.5458 10.7834 21.6 11.3834 21.6 12C21.6 13.3167 21.35 14.5584 20.85 15.725C20.35 16.8917 19.6625 17.9125 18.7875 18.7875C17.9125 19.6625 16.8958 20.35 15.7375 20.85C14.5792 21.35 13.3333 21.6 12 21.6ZM10.625 16.325L6.59999 12.3L7.89999 11L10.65 13.75L20.325 4.07502L21.6 5.35002L10.625 16.325Z" fill="#1F1F1F"/>
</svg>
