<svg width="24" height="24" viewBox="0 0 24 24" fill="none" xmlns="http://www.w3.org/2000/svg">
<path d="M2.99995 20.3999C2.51662 20.3999 2.09578 20.2207 1.73745 19.8624C1.37912 19.5041 1.19995 19.0832 1.19995 18.5999V6.5999H2.99995V18.5999H19.2V20.3999H2.99995ZM6.59995 16.7999C6.11662 16.7999 5.69579 16.6207 5.33745 16.2624C4.97912 15.9041 4.79995 15.4832 4.79995 14.9999V4.1999C4.79995 3.6999 4.97912 3.2749 5.33745 2.9249C5.69579 2.5749 6.11662 2.3999 6.59995 2.3999H10.825L13.225 4.7999H19.8C20.3 4.7999 20.725 4.9749 21.075 5.3249C21.425 5.6749 21.6 6.0999 21.6 6.5999V14.9999C21.6 15.4832 21.425 15.9041 21.075 16.2624C20.725 16.6207 20.3 16.7999 19.8 16.7999H6.59995Z" fill="#1F1F1F"/>
</svg>
