<svg width="24" height="24" viewBox="0 0 24 24" fill="none" xmlns="http://www.w3.org/2000/svg">
<path d="M4.00005 20V7.1L2.05005 2.85L3.85005 2L6.20005 7.05H17.8L20.15 2L21.95 2.85L20 7.1V20H4.00005ZM10 13H14C14.2834 13 14.5209 12.9042 14.7125 12.7125C14.9042 12.5208 15 12.2833 15 12C15 11.7167 14.9042 11.4792 14.7125 11.2875C14.5209 11.0958 14.2834 11 14 11H10C9.71672 11 9.47922 11.0958 9.28755 11.2875C9.09588 11.4792 9.00005 11.7167 9.00005 12C9.00005 12.2833 9.09588 12.5208 9.28755 12.7125C9.47922 12.9042 9.71672 13 10 13ZM6.00005 18H18V9.05H6.00005V18Z" fill="#1F1F1F"/>
</svg>
