<svg width="24" height="24" viewBox="0 0 24 24" fill="none" xmlns="http://www.w3.org/2000/svg">
<path d="M4 20C3.45 20 2.97917 19.8042 2.5875 19.4125C2.19583 19.0208 2 18.55 2 18V8C2 7.45 2.19583 6.97917 2.5875 6.5875C2.97917 6.19583 3.45 6 4 6H10L12 4H20C20.55 4 21.0208 4.19583 21.4125 4.5875C21.8042 4.97917 22 5.45 22 6V18C22 18.55 21.8042 19.0208 21.4125 19.4125C21.0208 19.8042 20.55 20 20 20H4ZM5.825 13H11V7.825L5.825 13ZM4 12L8 8H4V12ZM4 15V18H20V6H13V13C13 13.55 12.8042 14.0208 12.4125 14.4125C12.0208 14.8042 11.55 15 11 15H4Z" fill="black"/>
</svg>
