<svg width="25" height="24" viewBox="0 0 25 24" fill="none" xmlns="http://www.w3.org/2000/svg">
<path d="M3.24994 21C2.69994 21 2.22911 20.8042 1.83744 20.4125C1.44577 20.0208 1.24994 19.55 1.24994 19V6H3.24994V19H20.2499V21H3.24994ZM7.24994 17C6.69994 17 6.22911 16.8042 5.83744 16.4125C5.44577 16.0208 5.24994 15.55 5.24994 15V4C5.24994 3.45 5.44577 2.97917 5.83744 2.5875C6.22911 2.19583 6.69994 2 7.24994 2H12.2499L14.2499 4H21.2499C21.7999 4 22.2708 4.19583 22.6624 4.5875C23.0541 4.97917 23.2499 5.45 23.2499 6V15C23.2499 15.55 23.0541 16.0208 22.6624 16.4125C22.2708 16.8042 21.7999 17 21.2499 17H7.24994ZM7.24994 15H21.2499V6H13.4249L11.4249 4H7.24994V15Z" fill="#1F1F1F"/>
</svg>
