<svg width="20" height="20" viewBox="0 0 20 20" fill="none" xmlns="http://www.w3.org/2000/svg">
<path d="M6.33333 12.2917V12.7084C6.33333 12.8889 6.39236 13.0382 6.51042 13.1563C6.62847 13.2743 6.77778 13.3334 6.95833 13.3334C7.13889 13.3334 7.28819 13.2743 7.40625 13.1563C7.52431 13.0382 7.58333 12.8889 7.58333 12.7084V10.625C7.58333 10.4445 7.52431 10.2952 7.40625 10.1771C7.28819 10.0591 7.13889 10 6.95833 10C6.77778 10 6.62847 10.0591 6.51042 10.1771C6.39236 10.2952 6.33333 10.4445 6.33333 10.625V11.0417H5.70833C5.52778 11.0417 5.37847 11.1007 5.26042 11.2188C5.14236 11.3368 5.08333 11.4862 5.08333 11.6667C5.08333 11.8473 5.14236 11.9966 5.26042 12.1146C5.37847 12.2327 5.52778 12.2917 5.70833 12.2917H6.33333ZM9.04167 12.2917H14.4583C14.6389 12.2917 14.7882 12.2327 14.9063 12.1146C15.0243 11.9966 15.0833 11.8473 15.0833 11.6667C15.0833 11.4862 15.0243 11.3368 14.9063 11.2188C14.7882 11.1007 14.6389 11.0417 14.4583 11.0417H9.04167C8.86111 11.0417 8.71181 11.1007 8.59375 11.2188C8.4757 11.3368 8.41667 11.4862 8.41667 11.6667C8.41667 11.8473 8.4757 11.9966 8.59375 12.1146C8.71181 12.2327 8.86111 12.2917 9.04167 12.2917ZM13.8333 8.95837H14.4583C14.6389 8.95837 14.7882 8.89935 14.9063 8.78129C15.0243 8.66323 15.0833 8.51393 15.0833 8.33337C15.0833 8.15282 15.0243 8.00351 14.9063 7.88546C14.7882 7.7674 14.6389 7.70837 14.4583 7.70837H13.8333V7.29171C13.8333 7.11115 13.7743 6.96185 13.6563 6.84379C13.5382 6.72574 13.3889 6.66671 13.2083 6.66671C13.0278 6.66671 12.8785 6.72574 12.7604 6.84379C12.6424 6.96185 12.5833 7.11115 12.5833 7.29171V9.37504C12.5833 9.5556 12.6424 9.7049 12.7604 9.82296C12.8785 9.94101 13.0278 10 13.2083 10C13.3889 10 13.5382 9.94101 13.6563 9.82296C13.7743 9.7049 13.8333 9.5556 13.8333 9.37504V8.95837ZM5.70833 8.95837H11.125C11.3056 8.95837 11.4549 8.89935 11.5729 8.78129C11.691 8.66323 11.75 8.51393 11.75 8.33337C11.75 8.15282 11.691 8.00351 11.5729 7.88546C11.4549 7.7674 11.3056 7.70837 11.125 7.70837H5.70833C5.52778 7.70837 5.37847 7.7674 5.26042 7.88546C5.14236 8.00351 5.08333 8.15282 5.08333 8.33337C5.08333 8.51393 5.14236 8.66323 5.26042 8.78129C5.37847 8.89935 5.52778 8.95837 5.70833 8.95837ZM3.41667 16.6667C2.95833 16.6667 2.56597 16.5035 2.23958 16.1771C1.91319 15.8507 1.75 15.4584 1.75 15V5.00004C1.75 4.54171 1.91319 4.14935 2.23958 3.82296C2.56597 3.49657 2.95833 3.33337 3.41667 3.33337H16.75C17.2083 3.33337 17.6007 3.49657 17.9271 3.82296C18.2535 4.14935 18.4167 4.54171 18.4167 5.00004V15C18.4167 15.4584 18.2535 15.8507 17.9271 16.1771C17.6007 16.5035 17.2083 16.6667 16.75 16.6667H13.4167H12.5833H12.1667C12.1667 16.6667 11.9861 16.6667 11.75 16.6667H8.41667C8.18056 16.6667 7.58333 16.6667 7.40625 16.6667C7.16667 16.6667 7.16667 16.6667 6.95833 16.6667H6.75H3.41667ZM3.41667 15H16.75V5.00004H3.41667V15Z" fill="black" fill-opacity="0.56"/>
</svg>
