<svg width="24" height="24" viewBox="0 0 24 24" fill="none" xmlns="http://www.w3.org/2000/svg">
<path d="M2.99476 18C2.49826 18 2.07501 17.8233 1.72501 17.4698C1.37501 17.1163 1.20001 16.6913 1.20001 16.1948C1.20001 15.6983 1.37535 15.275 1.72601 14.925C2.07668 14.575 2.49826 14.4 2.99076 14.4C3.08026 14.4 3.16251 14.4042 3.23751 14.4125C3.31251 14.4208 3.39168 14.4333 3.47501 14.45L8.47501 9.462C8.44168 9.37067 8.42085 9.29167 8.41251 9.225C8.40418 9.15833 8.40001 9.08025 8.40001 8.99075C8.40001 8.49825 8.57676 8.07667 8.93026 7.726C9.28376 7.37533 9.70876 7.2 10.2053 7.2C10.7018 7.2 11.125 7.37625 11.475 7.72875C11.825 8.08125 12 8.505 12 9C12 9.05 11.975 9.2 11.925 9.45L14.5465 12.075C14.6322 12.0417 14.7072 12.0208 14.7715 12.0125C14.8357 12.0042 14.9107 12 14.9965 12C15.0822 12 15.1625 12.0042 15.2375 12.0125C15.3125 12.0208 15.3917 12.0333 15.475 12.05L19.275 8.2585C19.2417 8.1695 19.2208 8.09167 19.2125 8.025C19.2042 7.95833 19.2 7.88025 19.2 7.79075C19.2 7.29825 19.3768 6.87667 19.7303 6.526C20.0838 6.17533 20.5088 6 21.0053 6C21.5018 6 21.925 6.17675 22.275 6.53025C22.625 6.88375 22.8 7.30875 22.8 7.80525C22.8 8.30175 22.6247 8.725 22.274 9.075C21.9233 9.425 21.5018 9.6 21.0093 9.6C20.9198 9.6 20.8375 9.59583 20.7625 9.5875C20.6875 9.57917 20.6083 9.56667 20.525 9.55L16.725 13.3415C16.7583 13.4305 16.7792 13.5083 16.7875 13.575C16.7958 13.6417 16.8 13.7197 16.8 13.8092C16.8 14.3018 16.6233 14.7233 16.2698 15.074C15.9163 15.4247 15.4913 15.6 14.9948 15.6C14.4983 15.6 14.075 15.4247 13.725 15.074C13.375 14.7233 13.2 14.3018 13.2 13.8092C13.2 13.7197 13.2042 13.6375 13.2125 13.5625C13.2208 13.4875 13.2333 13.4083 13.25 13.325L10.6523 10.725C10.5674 10.7583 10.4917 10.7792 10.425 10.7875C10.3583 10.7958 10.2833 10.8 10.2 10.8C10.1167 10.8 9.95835 10.7833 9.72501 10.75L4.72501 15.738C4.75835 15.8293 4.77918 15.9083 4.78751 15.975C4.79585 16.0417 4.80001 16.1198 4.80001 16.2093C4.80001 16.7017 4.62326 17.1233 4.26976 17.474C3.91626 17.8247 3.49126 18 2.99476 18Z" fill="#1F1F1F"/>
</svg>
