<svg width="24" height="24" viewBox="0 0 24 24" fill="none" xmlns="http://www.w3.org/2000/svg">
<path d="M10.5 17.5H13.5V15H16V12H13.5V9.5H10.5V12H8V15H10.5V17.5ZM7 21C6.45 21 5.97917 20.8042 5.5875 20.4125C5.19583 20.0208 5 19.55 5 19V8C5 7.45 5.19583 6.97917 5.5875 6.5875C5.97917 6.19583 6.45 6 7 6H17C17.55 6 18.0208 6.19583 18.4125 6.5875C18.8042 6.97917 19 7.45 19 8V19C19 19.55 18.8042 20.0208 18.4125 20.4125C18.0208 20.8042 17.55 21 17 21H7ZM7 19H17V8H7V19ZM6 5V3H18V5H6Z" fill="#1F1F1F"/>
</svg>
