<svg width="30" height="30" viewBox="0 0 30 30" fill="none" xmlns="http://www.w3.org/2000/svg">
<path d="M9.16667 22.5C8.70833 22.5 8.31597 22.3368 7.98958 22.0104C7.66319 21.684 7.5 21.2917 7.5 20.8333V9.16667C7.5 8.70833 7.66319 8.31597 7.98958 7.98958C8.31597 7.66319 8.70833 7.5 9.16667 7.5H14.6042C14.8819 7.5 15.0903 7.58681 15.2292 7.76042C15.3681 7.93403 15.4375 8.125 15.4375 8.33333C15.4375 8.54167 15.3646 8.73264 15.2187 8.90625C15.0729 9.07986 14.8611 9.16667 14.5833 9.16667H9.16667V20.8333H20.8333V15.3958C20.8333 15.1181 20.9201 14.9097 21.0937 14.7708C21.2674 14.6319 21.4583 14.5625 21.6667 14.5625C21.875 14.5625 22.066 14.6319 22.2396 14.7708C22.4132 14.9097 22.5 15.1181 22.5 15.3958V20.8333C22.5 21.2917 22.3368 21.684 22.0104 22.0104C21.684 22.3368 21.2917 22.5 20.8333 22.5H9.16667ZM12.5 16.6667V14.6458C12.5 14.4236 12.5417 14.2118 12.625 14.0104C12.7083 13.809 12.8264 13.6319 12.9792 13.4792L20.1458 6.3125C20.3125 6.14583 20.5 6.02083 20.7083 5.9375C20.9167 5.85417 21.125 5.8125 21.3333 5.8125C21.5556 5.8125 21.7674 5.85417 21.9687 5.9375C22.1701 6.02083 22.3542 6.14583 22.5208 6.3125L23.6875 7.5C23.8403 7.66667 23.9583 7.85069 24.0417 8.05208C24.125 8.25347 24.1667 8.45833 24.1667 8.66667C24.1667 8.875 24.1285 9.07986 24.0521 9.28125C23.9757 9.48264 23.8542 9.66667 23.6875 9.83333L16.5208 17C16.3681 17.1528 16.191 17.2743 15.9896 17.3646C15.7882 17.4549 15.5764 17.5 15.3542 17.5H13.3333C13.0972 17.5 12.8993 17.4201 12.7396 17.2604C12.5799 17.1007 12.5 16.9028 12.5 16.6667ZM14.1667 15.8333H15.3333L20.1667 11L19.5833 10.4167L18.9792 9.83333L14.1667 14.6458V15.8333Z" fill="black" fill-opacity="0.56"/>
</svg>
