<svg width="20" height="20" viewBox="0 0 20 20" fill="none" xmlns="http://www.w3.org/2000/svg">
<path d="M2.16676 13.3333C1.72231 13.3333 1.33342 13.1667 1.00009 12.8333C0.666758 12.5 0.500092 12.1111 0.500092 11.6667V10C0.500092 9.90278 0.51398 9.79861 0.541758 9.6875C0.569536 9.57639 0.597314 9.47222 0.625092 9.375L3.12509 3.5C3.25009 3.22222 3.45843 2.98611 3.75009 2.79167C4.04176 2.59722 4.34731 2.5 4.66676 2.5H13.8334V13.3333L8.83343 18.2917C8.62509 18.5 8.37856 18.6215 8.09384 18.6562C7.80912 18.691 7.53481 18.6389 7.27093 18.5C7.00704 18.3611 6.81259 18.1667 6.68759 17.9167C6.56259 17.6667 6.53481 17.4097 6.60426 17.1458L7.54176 13.3333H2.16676ZM12.1668 12.625V4.16667H4.66676L2.16676 10V11.6667H9.66676L8.54176 16.25L12.1668 12.625ZM16.3334 2.5C16.7918 2.5 17.1841 2.66319 17.5105 2.98958C17.8369 3.31597 18.0001 3.70833 18.0001 4.16667V11.6667C18.0001 12.125 17.8369 12.5174 17.5105 12.8437C17.1841 13.1701 16.7918 13.3333 16.3334 13.3333H13.8334V11.6667H16.3334V4.16667H13.8334V2.5H16.3334Z" fill="black" fill-opacity="0.12"/>
</svg>
