<svg width="20" height="20" viewBox="0 0 20 20" fill="none" xmlns="http://www.w3.org/2000/svg">
<path d="M17.0833 6.66671C17.5278 6.66671 17.9167 6.83337 18.25 7.16671C18.5833 7.50004 18.75 7.88893 18.75 8.33337V10C18.75 10.0973 18.7361 10.2014 18.7083 10.3125C18.6806 10.4237 18.6528 10.5278 18.625 10.625L16.125 16.5C16 16.7778 15.7917 17.0139 15.5 17.2084C15.2083 17.4028 14.9028 17.5 14.5833 17.5H5.41667V6.66671L10.4167 1.70837C10.625 1.50004 10.8715 1.37851 11.1562 1.34379C11.441 1.30907 11.7153 1.36115 11.9792 1.50004C12.2431 1.63893 12.4375 1.83337 12.5625 2.08337C12.6875 2.33337 12.7153 2.59032 12.6458 2.85421L11.7083 6.66671H17.0833ZM7.08333 7.37504V15.8334H14.5833L17.0833 10V8.33337H9.58333L10.7083 3.75004L7.08333 7.37504ZM2.91667 17.5C2.45833 17.5 2.06597 17.3368 1.73958 17.0105C1.41319 16.6841 1.25 16.2917 1.25 15.8334V8.33337C1.25 7.87504 1.41319 7.48268 1.73958 7.15629C2.06597 6.8299 2.45833 6.66671 2.91667 6.66671H5.41667V8.33337H2.91667V15.8334H5.41667V17.5H2.91667Z" fill="black" fill-opacity="0.12"/>
</svg>
