<svg width="24" height="24" viewBox="0 0 24 24" fill="none" xmlns="http://www.w3.org/2000/svg">
<path d="M11.9948 16.2C12.2483 16.2 12.4625 16.1143 12.6375 15.9428C12.8125 15.7713 12.9 15.5588 12.9 15.3053C12.9 15.0518 12.8143 14.8375 12.6428 14.6625C12.4713 14.4875 12.2588 14.4 12.0053 14.4C11.7518 14.4 11.5375 14.4858 11.3625 14.6573C11.1875 14.8288 11.1 15.0413 11.1 15.2948C11.1 15.5483 11.1858 15.7625 11.3573 15.9375C11.5288 16.1125 11.7413 16.2 11.9948 16.2ZM11.9948 12.9C12.2483 12.9 12.4625 12.8143 12.6375 12.6428C12.8125 12.4713 12.9 12.2588 12.9 12.0053C12.9 11.7518 12.8143 11.5375 12.6428 11.3625C12.4713 11.1875 12.2588 11.1 12.0053 11.1C11.7518 11.1 11.5375 11.1858 11.3625 11.3573C11.1875 11.5288 11.1 11.7413 11.1 11.9948C11.1 12.2483 11.1858 12.4625 11.3573 12.6375C11.5288 12.8125 11.7413 12.9 11.9948 12.9ZM11.9948 9.60005C12.2483 9.60005 12.4625 9.5143 12.6375 9.3428C12.8125 9.1713 12.9 8.9588 12.9 8.7053C12.9 8.4518 12.8143 8.23755 12.6428 8.06255C12.4713 7.88755 12.2588 7.80005 12.0053 7.80005C11.7518 7.80005 11.5375 7.8858 11.3625 8.0573C11.1875 8.2288 11.1 8.4413 11.1 8.6948C11.1 8.9483 11.1858 9.16255 11.3573 9.33755C11.5288 9.51255 11.7413 9.60005 11.9948 9.60005ZM19.8 19.2H4.20002C3.70502 19.2 3.28127 19.0238 2.92877 18.6713C2.57627 18.3188 2.40002 17.895 2.40002 17.4V13.8C2.89502 13.8 3.31877 13.6233 3.67127 13.2698C4.02377 12.9163 4.20002 12.4913 4.20002 11.9948C4.20002 11.4983 4.02377 11.0738 3.67127 10.7213C3.31877 10.3688 2.89502 10.1925 2.40002 10.1925V6.59255C2.40002 6.09755 2.57627 5.67505 2.92877 5.32505C3.28127 4.97505 3.70502 4.80005 4.20002 4.80005H19.8C20.295 4.80005 20.7188 4.9763 21.0713 5.3288C21.4238 5.6813 21.6 6.10505 21.6 6.60005V10.2C21.105 10.2 20.6813 10.3768 20.3288 10.7303C19.9763 11.0838 19.8 11.5088 19.8 12.0053C19.8 12.5018 19.9763 12.9263 20.3288 13.2788C20.6813 13.6313 21.105 13.8075 21.6 13.8075V17.4075C21.6 17.9025 21.4238 18.325 21.0713 18.675C20.7188 19.025 20.295 19.2 19.8 19.2ZM19.8 17.4V15.125C19.2667 14.8084 18.8334 14.375 18.5 13.825C18.1667 13.275 18 12.6667 18 12C18 11.3334 18.1667 10.725 18.5 10.175C18.8334 9.62505 19.2667 9.19172 19.8 8.87505V6.60005H4.20002V8.87505C4.73336 9.19172 5.16669 9.62505 5.50002 10.175C5.83336 10.725 6.00002 11.3334 6.00002 12C6.00002 12.6667 5.83336 13.275 5.50002 13.825C5.16669 14.375 4.73336 14.8084 4.20002 15.125V17.4H19.8Z" fill="#1F1F1F"/>
</svg>
